<svg width="818" height="1177" viewBox="0 0 818 1177" fill="none" xmlns="http://www.w3.org/2000/svg">
<rect width="229" height="282" transform="matrix(-1 0 0 1 357 723)" fill="#142C17"/>
<path fill-rule="evenodd" clip-rule="evenodd" d="M423.793 447.173C399.108 428.376 337.135 419.923 310.789 438.022C284.767 456.197 281.931 485.589 269.805 512.627C258.364 507.232 239.47 514.958 236.153 525.574C232.039 530.581 231.854 544.649 229.017 551.38C105.575 571.029 86.8344 667.267 71.9764 776.525C52.3204 887.394 7.69944 998.021 27.0704 1112.11C24.5464 1115.76 22.5564 1119.31 20.7164 1123.53C16.3074 1131.03 21.9864 1141.65 30.8794 1141.24C42.3904 1140.22 53.7874 1138.84 65.3524 1138.41C97.4122 1137.3 129.501 1137.43 161.573 1137.84L165.946 1137.9C327.579 1139.91 489.203 1143.87 650.843 1144.93C656.707 1144.93 659.578 1139.68 658.795 1134.49C657.218 1124.04 655.755 1113.59 654.228 1103.14C692.46 1113.24 733.104 1115.78 771.228 1104.2C773.895 1101.49 765.014 1102.96 763.605 1102.55C798.691 1078.57 788.213 1028.07 785.105 991.687C765.779 867.036 758.966 729.118 684.297 622.751C651.994 579.343 604.635 544.975 550.216 537.242L548.707 537.036C532.795 534.914 515.061 534.231 501.148 525.574C485.501 513.083 478.833 490.002 462.372 489.786C456.936 489.715 449.542 496.592 441.584 501.26C440.99 490.99 435.455 482.322 434.233 474.359L434.134 473.678C432.859 464.394 434.606 456.041 423.793 447.173ZM158.505 779.819C193.196 755.719 282.809 767.828 284.86 769.178C289.377 772.149 291.322 772.411 293.765 776.269C296.177 776.589 298.587 776.921 300.995 777.263C305.826 778.841 302.246 784.783 296.666 782.663C300.023 797.138 290.146 807.431 286.213 821.741C284.937 826.387 286.167 834.743 286.213 839.49C285.832 845.543 279.14 852.693 280.255 858.766C284.221 880.355 305.739 901.415 296.666 922.352C290.656 934.177 272.58 940.206 260.562 944.226C235.663 953.782 192.279 943.867 177.812 922.352C170.096 910.876 161.156 881.928 156.555 872.949L155.535 858.706C153.02 823.299 150.783 785.183 158.505 779.819Z" fill="#E4B18D"/>
<path fill-rule="evenodd" clip-rule="evenodd" d="M463.655 489.851L453.727 495.943L396.069 524.445C384.891 527.575 379.302 531.326 379.302 535.698V580.217C379.302 586.174 368.813 599.677 347.834 620.723L328.452 601.402L328.886 598.872C330.73 587.972 331.652 580.68 331.652 576.997C331.652 573.037 312.69 558.001 274.767 531.891L258.176 516.271L259.945 510.891C249.715 511.375 238.621 517.675 236.153 525.574C232.039 530.581 231.854 544.649 229.017 551.38C105.575 571.029 86.8344 667.267 71.9764 776.525C52.3204 887.394 7.69944 998.021 27.0704 1112.11C24.5464 1115.76 22.5564 1119.31 20.7164 1123.53C16.3074 1131.03 21.9864 1141.65 30.8794 1141.24C42.3904 1140.22 53.7874 1138.84 65.3524 1138.41C97.4122 1137.3 129.501 1137.43 161.573 1137.84L165.946 1137.9C327.579 1139.91 489.203 1143.87 650.843 1144.93C656.707 1144.93 659.578 1139.68 658.795 1134.49C657.218 1124.04 655.755 1113.59 654.228 1103.14C692.46 1113.24 733.104 1115.78 771.228 1104.2C773.895 1101.49 765.014 1102.96 763.605 1102.55C798.691 1078.57 788.213 1028.07 785.105 991.687C765.779 867.036 758.966 729.118 684.297 622.751C651.994 579.343 604.635 544.975 550.216 537.242L548.707 537.036L547.186 536.838C531.673 534.863 514.619 533.956 501.148 525.574C485.914 513.413 479.192 491.213 463.655 489.851ZM325.498 751.156C331.153 751.156 342.735 759.938 360.244 777.502L361.786 778.215C382.951 788.046 396.972 796.574 403.85 803.799L404.095 804.06C411.043 811.513 424.801 831.333 445.37 863.519L475.157 881.134H486.427L494.451 939.338L475.157 980.897L431.453 966.176L360.244 947.407L319.382 905.951L296.332 898.213C299.128 906.292 300.142 914.331 296.666 922.352C290.656 934.177 272.58 940.206 260.562 944.226C235.663 953.782 192.279 943.867 177.812 922.352C170.096 910.876 161.156 881.928 156.555 872.949L155.235 854.446C152.857 820.302 151.092 784.968 158.505 779.819C193.196 755.719 282.809 767.828 284.86 769.178C289.377 772.149 291.322 772.411 293.765 776.269L295.03 776.439L287.918 766.794L290.436 765.449C308.404 755.92 320.092 751.156 325.498 751.156ZM296.666 782.663C299.88 796.52 290.964 806.546 286.747 819.932L297.521 799.308L297.521 782.931C297.242 782.862 296.957 782.774 296.666 782.663Z" fill="#22252B"/>
<path fill-rule="evenodd" clip-rule="evenodd" d="M468.415 487.698C466.02 485.577 462.476 488.242 463.998 491.107C467.418 497.546 470.926 503.647 475.516 509.339C478.299 512.79 481.28 516.054 484.301 519.282C476.548 525.989 469.899 534.316 463.62 542.12C455.591 552.101 448 562.505 438.987 571.638C430.099 580.646 420.27 586.942 408.386 591.141L405.986 591.974C394.048 596.165 381.289 601.825 374.559 613.128C373.232 615.357 375.904 618.111 378.15 616.72C389.843 609.48 403.582 608.024 416.31 603.24C428.605 598.619 439.323 591.507 448.793 582.43C458.247 573.368 466.185 563.058 474.465 552.966C482.653 542.987 491.469 534.464 501.154 526.021C516.1 536.076 533.16 540.451 550.507 544.748L552.4 545.216C569.768 549.516 587.043 554.51 603.337 561.998C617.703 568.599 631.833 576.482 643.535 587.224C655.957 598.624 665.625 613.184 674.474 627.423C694.268 659.279 708.184 694.179 720.435 729.503C733.177 766.245 743.835 803.723 752.439 841.646C756.815 860.936 760.369 880.363 763.29 899.926C764.696 909.348 765.945 918.79 767.042 928.253C768.213 938.358 768.482 948.754 771.582 958.47C772.911 962.634 776.049 964.362 779.19 964.215L779.828 972.194C780.674 982.832 781.463 993.473 781.729 1004.18C782.171 1021.98 781.971 1039.72 780.691 1057.48L780.509 1059.9C779.503 1072.87 777.255 1087.43 767.508 1096.92C757.414 1106.75 741.891 1109.84 728.286 1110.02C696.599 1110.43 666.097 1095.46 638.057 1082.33C609.179 1068.8 581.09 1053.78 553.674 1037.5C539.712 1029.21 525.901 1020.64 512.266 1011.82C505.575 1007.49 498.931 1003.09 492.337 998.614C488.56 996.052 484.981 993.243 481.136 990.97C483.02 989.216 483.861 986.458 482.283 984.05C493.398 974.402 498.024 957.185 498.565 943.254C499.002 932.009 497.347 920.796 496.041 909.657C495.382 904.04 494.568 898.433 493.723 892.841C493.389 890.632 493.134 888.269 492.744 885.937C522.757 902.43 553.611 917.118 585.282 930.167C601.516 936.856 617.958 942.87 634.627 948.381L638.006 949.493C653.8 954.663 669.972 959.547 686.299 962.502C687.172 962.66 687.881 961.371 686.949 960.96C671.037 953.939 654.574 948.017 638.423 941.551L635.769 940.47V940.47C636.074 940.453 636.39 940.411 636.72 940.332C646.192 938.046 655.59 934.523 664.88 931.557C673.502 928.804 683.189 927.075 691.248 922.919C691.868 922.599 691.521 921.737 690.917 921.696C681.859 921.068 672.026 923.708 663.145 925.261L659.809 925.846C654.22 926.831 648.507 927.891 642.945 929.272C642.744 927.409 641.703 925.538 640.222 924.441C623.925 912.372 625.58 887.996 623.837 870.021L622.545 856.676C620.272 833.321 617.866 809.969 614.212 786.788C614.017 785.55 612.102 785.905 612.094 787.074C611.906 815.809 614.075 844.411 615.162 873.101L615.331 877.808C615.932 895.51 616.403 913.893 627.552 927.514C625.993 926.603 623.885 926.603 622.622 928.105C621.07 929.952 620.174 932.026 620.202 934.061C610.127 929.837 600.096 925.503 590.114 921.081C558.021 906.863 526.601 890.952 496.012 873.736C492.72 871.883 489.591 873.339 487.963 875.782L487.729 875.749C487.689 875.743 487.649 875.739 487.608 875.738L487.375 875.728C487.366 875.728 487.357 875.729 487.349 875.729C483.043 873.363 477.177 875.048 473.482 878.499C473.373 878.603 473.28 878.715 473.183 878.825C468.505 876.725 464.137 873.89 460.173 870.297C452.061 862.945 445.19 853.854 439.2 844.738C428.169 827.948 418.799 809.277 403.898 795.456C391.791 784.227 376.781 777.236 361.034 772.847C361.1 772.387 360.924 771.897 360.606 771.571C359.797 770.742 359.22 770.455 358.175 770.958C358.092 770.999 358.042 771.055 358.008 771.115L356.472 768.49C355.633 767.065 354.772 765.63 354.473 765.253C352.685 763.002 350.845 760.768 348.977 758.581C345.81 754.878 342.201 751.224 338.022 748.656C328.872 743.035 319.253 746.216 309.846 749.288C304.162 751.145 298.497 753.062 292.823 754.947L292.238 755.139C288.007 756.498 283.056 757.687 281.164 762.169C280.415 763.943 280.299 765.784 280.648 767.57C240.465 757.351 195.833 762.046 156.62 774.042C155.115 774.502 153.611 775.74 153.294 777.366C148.801 800.407 146.8 824.036 148.833 847.47C150.587 867.698 155.07 887.521 163.516 906.04L163.996 907.086C171.933 924.249 184.514 945.405 203.727 950.784C215.328 954.032 228.158 952.117 239.99 951.522C251.489 950.943 263.243 950.859 274.633 949.051C284.777 947.441 293.665 942.894 299.934 934.646C305.342 927.53 308.19 918.93 310.523 910.375C311.591 910.715 312.652 911.076 313.696 911.485C318.103 913.206 321.837 915.984 325.213 919.253C332.342 926.157 337.872 934.542 345.331 941.13C352.083 947.094 359.777 951.732 368.03 955.298C385.132 962.688 403.478 965.641 421.567 969.557L422.828 969.831C436.446 972.819 450.346 976.488 462.366 983.578C462.601 985.665 463.552 987.629 465.076 988.915C462.956 990.906 462.058 994.059 463.921 997.017C469.125 1005.28 478.089 1009.97 486.136 1015.26L486.659 1015.6C494.575 1020.85 502.56 1025.99 510.61 1031.03C526.975 1041.28 543.682 1050.96 560.625 1060.22C587.876 1075.1 615.712 1089.15 644.052 1101.88C642.351 1110.25 642.973 1118.88 641.695 1127.31L641.498 1128.51C640.952 1131.63 641.69 1134.25 643.844 1136.29L644.071 1136.5L644.067 1136.47L644.269 1136.66L644.337 1136.72L644.314 1136.7C644.563 1136.93 644.819 1137.14 645.08 1137.32L645.412 1137.53V1137.53C647.487 1138.79 650.157 1138.78 652.281 1137.67L652.523 1137.53L652.931 1137.3C655.737 1135.68 657.672 1131.69 656.508 1128.51C653.647 1120.7 652.566 1112.37 649.924 1104.51L652.02 1105.44V1105.44L654.783 1106.65C684.661 1119.57 717.849 1130.45 750.403 1121.64C764.787 1117.75 778.231 1109.51 785.428 1096.09C792.51 1082.89 793.511 1067.55 793.887 1052.86C794.351 1034.73 793.379 1016.32 790.988 998.348C789.383 986.282 787.442 973.988 784.448 962.047C785.988 960.688 787.12 958.739 787.419 956.325C788.832 944.92 786.359 933.063 784.845 921.717C783.366 910.639 781.732 899.583 779.884 888.561C776.153 866.302 771.818 844.09 766.771 822.092C757.789 782.941 745.928 744.486 731.648 706.95L730.398 703.681C717.202 669.372 701.924 635.795 680.649 605.654C670.472 591.234 659.714 578.16 645.334 567.769C631.862 558.033 616.666 551.023 600.984 545.665C585.285 540.303 569.149 536.71 552.728 534.475C536.051 532.205 518.448 530.813 502.891 523.973C504.859 520.445 503.17 515.682 499.858 513.494C488.712 506.13 478.405 496.55 468.415 487.698ZM111.61 807.92C111.143 807.211 110.034 807.659 110.239 808.498C115.66 830.707 120.749 852.961 124.072 875.594C130.07 916.443 128.967 957.827 128.477 998.978L128.452 1001.11C128.2 1023.27 127.85 1045.44 127.117 1067.6C126.747 1078.8 126.015 1090.1 126.413 1101.31C126.63 1107.39 128.25 1113.13 128.824 1119.14C129.327 1124.39 128.879 1129.72 128.628 1134.98C128.46 1138.48 133.62 1138.33 133.971 1134.98L134.42 1130.65C135.003 1125.17 135.723 1119.73 137.519 1114.48C139.678 1108.18 140.714 1101.98 141.463 1095.36C142.61 1085.21 143.12 1074.96 143.563 1064.75L143.866 1057.68C145.715 1014.97 145.65 972.069 142.657 929.409L142.438 926.363C139.474 886.039 134.331 842.47 111.61 807.92ZM227.165 553.773C228.581 553.191 228.085 551.05 226.517 551.423L223.665 552.103C202.771 557.108 182.255 562.53 162.753 571.843C143.238 581.161 126.716 595.072 113.588 612.178C88.0677 645.429 77.4627 685.839 69.0907 726.211C59.7867 771.072 51.3156 816.097 41.9306 860.944L40.1879 869.298C31.5039 911.067 23.3049 952.861 17.2637 995.125L16.8297 998.19C10.7375 1041.65 7.07307 1086.62 13.7207 1130.19C15.0357 1138.81 29.3816 1136.67 28.8206 1128.15C27.2006 1103.53 26.0407 1079.03 27.1617 1054.36C28.2837 1029.67 30.5987 1005.1 34.0497 980.63C36.9538 960.04 41.283 939.706 45.1142 919.279L45.7147 916.053C48.9227 898.679 52.2299 881.323 55.5298 863.966L60.4611 837.978C67.8521 799.065 75.3877 760.118 83.9026 721.449L84.408 719.174C92.7408 681.972 105.026 643.002 130.021 613.46C155.386 583.479 191.697 568.38 227.165 553.773ZM319.332 948.371C318.722 947.012 316.588 947.161 315.932 948.371C313.361 953.113 313.076 959.167 312.59 964.52L312.539 965.072C311.921 971.605 311.374 978.16 311.039 984.714C310.404 997.153 310.1 1009.58 310.139 1022.03C310.179 1034.79 310.436 1047.54 311.124 1060.29L311.31 1063.7C311.938 1074.78 312.992 1087.13 318.255 1096.82C320.168 1100.34 325.371 1099.3 326.479 1095.74C330.109 1084.09 328.245 1070.27 327.314 1058.33L326.591 1049.01C325.875 1039.7 325.192 1030.38 324.651 1021.05C323.909 1008.29 323.297 995.517 322.708 982.75C322.516 978.603 322.309 974.455 322.091 970.308L321.755 964.09C321.468 958.888 321.492 953.18 319.332 948.371ZM727.479 964.89L725.873 963.338C720.94 958.51 714.706 951.076 707.413 951.537C704.505 951.721 702.652 954.135 703.255 956.996C704.543 963.112 710.782 966.286 715.273 970.02C720.193 974.109 724.83 978.48 729.458 982.893C733.564 986.806 737.513 990.83 741.366 994.98L742.807 996.542C744.189 998.049 754.026 1006.95 752.962 1009.26L752.904 1009.36C752.608 1009.8 753.101 1010.41 753.592 1010.25C757.84 1008.91 757.575 1005.27 755.969 1001.58C752.883 994.494 747.479 987.937 742.76 981.884C738.054 975.845 732.96 970.222 727.479 964.89V964.89ZM303.938 787.137C307.223 779.373 319.324 779.536 326.194 780C343.494 781.169 362.212 785.546 377.605 793.632C393.564 802.015 404.314 815.447 413.932 830.3L414.382 830.997C423.757 845.57 432.786 862.821 447.466 872.841C454.943 877.946 463.674 882.607 472.746 884.626C473.369 885.721 474.378 886.588 475.701 886.903L476.316 887.044C478.9 887.615 482.914 888.246 486.381 887.868C486.358 889.564 486.376 891.247 486.333 892.854C486.211 897.459 486.159 902.084 486.159 906.692C486.157 916.347 486.676 926.021 486.273 935.675C485.916 944.214 484.71 953.136 480.61 960.769C477.603 966.369 473.634 970.075 468.843 973.613C457.057 966.43 443.73 962.052 430.204 958.76C413.846 954.779 397.097 952.122 381.111 946.724C373.417 944.125 366.02 940.724 359.318 936.105C352.205 931.2 346.772 924.564 341.182 918.073L340.309 917.065C334.604 910.522 328.379 904.262 320.316 900.714C313.373 897.658 304.222 897.114 298.151 892.386C294.977 889.912 294.711 886.322 294.377 882.646C298.265 883.202 302.381 882.311 306.256 881.857L308.264 881.622C311.928 881.186 315.508 880.708 319.115 879.775C319.785 879.602 319.785 878.592 319.115 878.419C314.852 877.318 310.627 876.849 306.256 876.337L305.23 876.209C301.276 875.691 297.119 874.908 293.24 875.778C292.544 873.13 291.539 870.602 290.129 868.07C288.15 864.513 284.405 860.48 283.899 856.325C283.748 855.084 284.037 853.621 284.622 852.524L284.824 852.151C285.07 851.709 285.361 851.265 285.787 850.989C285.834 851.044 285.934 851.107 286.151 851.175C289.136 852.115 291.74 850.654 293.122 848.402C298.989 849.13 305.392 848.885 310.894 849.128L316.457 849.398C322.402 849.67 328.616 849.789 334.201 848.588C334.981 848.421 335.217 847.123 334.436 846.789C327.569 843.852 319.239 842.915 311.887 841.787C307.781 841.156 303.645 840.676 299.527 840.121C296.785 839.751 293.875 839.14 291.034 838.993C283.911 830.126 287.749 816.138 297.662 812.32C301.273 813.907 304.52 812.984 308.465 812.645C312.403 812.307 316.351 812.078 320.305 812.095C328.228 812.13 336.624 814.214 344.47 813.317C345.746 813.17 346.932 811.472 345.663 810.436C339.658 805.535 331.05 803.937 323.427 802.893L321.846 802.681C319.29 802.346 316.182 801.857 312.958 801.566C312.229 800.144 310.921 799.069 308.956 798.802C308.372 798.722 307.785 798.675 307.199 798.625L307.208 798.567V798.567C302.416 798.337 302.624 790.243 303.938 787.137ZM632.007 938.562C632.092 938.693 632.185 938.818 632.283 938.937L632.435 939.113L631.647 938.793L632.007 938.562V938.562ZM220.316 769.788C240.486 767.621 260.685 768.078 280.915 768.66C282.533 773.952 288.165 778.462 293.622 778.632C289.348 785.137 288.907 793.941 291.904 800.84C285.541 803.373 280.059 807.923 276.731 814.403C272.116 823.386 272.72 833.382 277.281 841.684C273.388 845.208 271.091 850.931 271.321 856.325C271.578 862.34 275.163 867.478 278.142 872.458C281.361 877.844 281.469 882.586 282.458 888.618C283.905 897.446 289.859 902.8 297.52 906.144L297.113 907.746C295.138 915.435 292.681 923.547 287.035 929.168C279.774 936.401 268.508 936.334 258.913 936.792L258.45 936.814C249.665 937.254 240.883 937.768 232.101 938.266L225.513 938.634C215.401 939.19 205.69 939.257 197.435 932.572C183.958 921.66 174.719 903.601 168.871 887.614C156.597 854.058 156.45 817.233 162.084 782.285C180.979 776.195 200.584 771.908 220.316 769.788ZM388.055 825.46L387.907 825.471C383.754 825.945 380.901 829.308 379.885 833.297C378.409 839.095 379.133 844.337 375.582 849.571C371.929 854.953 369.683 859.262 369.152 865.911C368.934 868.647 369.034 871.376 368.425 874.054L367.983 875.93C367.514 877.931 367.131 879.858 367.364 882.006C367.577 883.965 368.531 885.491 370.496 886.119C376.899 888.167 381.843 883.449 383.497 877.482C384.926 872.328 383.018 866.186 385.034 861.346C386.151 858.663 388.211 856.419 389.375 853.718C390.528 851.041 391.107 848.244 391.292 845.334C391.643 839.83 386.775 833.217 389.491 828.23C390.069 827.166 389.414 825.428 388.055 825.46ZM473.108 768.662C468.772 767.781 463.853 765.762 459.577 767.44C457.379 768.304 456.293 770.984 458.15 772.847C461.374 776.079 466.06 776.259 470.403 777.021L470.785 777.09C475.92 778.04 481.064 778.941 486.215 779.795C495.906 781.4 505.62 782.819 515.368 784.025C525.38 785.264 535.42 786.367 545.474 787.197L549.366 787.516C557.859 788.195 566.696 788.708 575.029 787.407C576.24 787.218 576.045 785.455 575.029 785.146C565.9 782.383 555.886 781.642 546.448 780.473C536.414 779.228 526.397 777.913 516.406 776.353C506.431 774.795 496.469 773.123 486.544 771.275C482.058 770.441 477.579 769.57 473.108 768.662ZM316.653 759.79C320.458 758.443 324.644 756.447 328.767 757.115C335.877 758.267 342.205 765.194 347.833 769.756L345.008 769.207C330.548 766.428 311.4 763.434 299.262 772.627C299.231 772.574 299.207 772.521 299.172 772.468C298.192 770.98 297.057 769.819 295.818 768.546C295.7 768.435 295.586 768.319 295.473 768.202L294.804 767.49L296.333 766.961C299.608 765.803 303.488 764.309 304.101 764.09L304.143 764.075C308.318 762.661 312.498 761.263 316.653 759.79ZM435.455 456.716C436.05 449.063 424.139 449.126 423.549 456.716C422.262 473.286 425.991 489.699 434.017 504.226C434.076 504.332 434.141 504.426 434.203 504.526C429.183 507.138 424.106 509.644 418.916 511.884C412.277 514.75 405.513 517.36 398.628 519.574C392.4 521.578 384.727 522.369 379.491 526.539C368.45 535.331 372.598 553.577 374.722 565.404L375.054 567.271C376.111 573.357 376.876 579.601 374.31 585.442C371.57 591.681 366.029 596.309 361.086 600.773L360.088 601.678C355.709 605.668 350.705 610.515 347.493 615.923C344.561 609.861 340.564 604.907 336.338 599.33C333.323 595.35 335.469 594.038 337.635 590.15C339.72 586.408 340.738 582.419 340.086 578.15C338.883 570.266 332.582 564.571 326.31 560.292C318.903 555.241 310.636 551.499 302.979 546.8C287.245 537.146 271.922 526.108 258.117 513.849C257.736 513.51 257.076 513.954 257.381 514.417C268.286 531.004 281.073 545.337 296.788 557.503C303.16 562.436 309.854 566.528 316.593 570.83L318.53 572.073C321.236 573.826 324.611 576.168 325.834 579.152C327.065 582.153 324.44 584.419 323.027 586.905C318.54 594.8 320.705 602.166 326.024 608.861L326.272 609.169C331.558 615.683 335.564 621.741 337.48 630.063C341.597 647.94 335.863 666.561 329.86 683.344L329.623 684.005C326.376 693.051 322.925 702.031 320.104 711.222L319.328 713.763C316.772 722.22 314.679 730.561 317.546 739.254C318.521 742.211 322.554 742.91 324.229 740.127C330.138 730.313 331.611 718.503 335.315 707.713C338.925 697.197 343.07 686.871 346.557 676.312C351.047 662.717 354.052 648.083 352.421 633.823C352.469 633.74 352.522 633.662 352.562 633.574L353.705 631.074C356.822 624.304 359.832 618.392 365.5 612.996C371.412 607.367 377.829 602.384 382.481 595.57C392.586 580.769 386.337 564.304 385.116 548.12L384.976 546.136C384.755 542.775 384.633 538.209 386.828 535.883C389.297 533.265 395.087 532.597 398.363 531.438C406.829 528.442 415.172 524.951 423.118 520.759C430.682 516.769 438.009 512.361 444.831 507.197L448.289 504.596C453.745 500.48 459.402 495.984 463.058 490.381C463.48 489.736 462.763 488.695 461.999 489.004C455.895 491.481 450.318 495.421 444.607 498.849C444.518 498.64 444.415 498.429 444.298 498.217C437.232 485.429 434.326 471.261 435.455 456.716ZM240.472 544.331C238.04 537.662 226.956 538.177 227.398 546.101C227.737 552.189 230.321 557.684 232.685 563.211L232.937 563.803C235.377 569.562 238.195 574.969 241.567 580.247C248.01 590.337 255.557 599.701 263.618 608.538C270.926 616.55 280.518 621.449 291.571 620.635C296.228 620.292 300.929 619.107 305.01 616.781C309.857 614.017 315.121 605.718 321.305 607.728C321.903 607.922 322.461 607.046 321.944 606.631C314.805 600.882 306.702 609.796 299.867 611.944C289.568 615.179 278.999 611.602 272.37 603.276C265.449 594.583 259.079 584.85 253.262 575.385C250.308 570.579 247.613 565.591 245.285 560.45C242.936 555.261 242.402 549.622 240.472 544.331ZM257.073 503.289C257.373 502.368 256.229 501.492 255.42 502.018C250.729 505.072 246.664 509.107 242.337 512.644C237.536 516.568 232.7 520.412 227.789 524.197C220.63 529.716 228.933 539.876 235.235 533.847C243.859 525.6 253.304 514.816 257.073 503.289ZM282.828 471.009C280.922 463.661 269.651 466.691 271.293 473.954L271.347 474.175C274.458 486.172 270.027 498.386 260.568 506.163L260.22 506.445C254.236 511.234 262.714 519.606 268.639 514.863C281.574 504.511 286.955 486.926 282.828 471.009Z" fill="black"/>
<path fill-rule="evenodd" clip-rule="evenodd" d="M519.529 304.003C517.377 285.088 520.163 245.552 520.349 243.15C521.529 227.965 514.415 168.002 500.964 173.527C478.402 155.666 448.351 151.722 420.252 149.838C361.884 145.924 299.791 154.909 254.721 194.189C232.433 214.588 210.733 244.257 212.477 275.149C192.227 304.431 163.677 344.598 188.909 378.831C197.486 389.768 211.117 393.841 221.892 402.124C243.563 419.604 257.16 444.69 279.037 462.066C336.997 514.149 435.414 525.029 492.36 465.789C536.395 422.885 529.275 358.699 521.529 304.003C516.322 267.23 523.729 340.904 519.529 304.003Z" fill="#E4B18D"/>
<path fill-rule="evenodd" clip-rule="evenodd" d="M342.28 69.6251C357.89 66.4751 373.919 64.5151 389.86 65.1051L391.089 65.1528C403.083 65.6322 418.273 66.6926 428.736 73.6671C429.338 73.0631 430.306 72.7531 431.184 73.1721C443.618 79.1071 457.294 83.3981 470.386 87.6621C483.418 91.9051 496.938 94.7061 510.597 95.8351C515.736 96.2601 520.134 101.809 516.88 106.786C516.106 107.972 515.352 109.17 514.601 110.371C515.857 110.24 517.113 110.105 518.369 109.978C522.502 109.562 526.631 113.973 526.386 117.997C526.233 120.528 525.96 123.029 525.556 125.5C527.13 125.467 528.695 125.703 530.207 126.342C537.863 129.575 537.33 138.694 536.757 145.632C535.963 155.26 532.362 165.458 525.676 172.664C530.668 177.849 534.202 184.041 536.31 191.395C537.839 196.765 538.69 202.485 538.27 208.075L538.136 209.749C537.617 215.815 536.584 222.531 532.22 226.895C529.98 229.145 527.22 229.965 524.589 229.705C526.18 243.685 527.2 257.745 528.16 271.755L528.61 278.451C530.752 310.831 532.361 343.422 531.94 375.855C531.549 406.165 525.56 435.585 506.97 460.195C490.039 482.605 465.73 499.125 438.23 505.405C423.41 508.795 408.28 509.035 393.28 506.875C386.009 505.825 378.69 504.215 371.789 501.675C364.15 498.855 358.66 494.705 353.52 488.485C351.089 485.535 352.259 479.255 357.1 479.845C364.421 480.733 371.105 481.803 378.124 483.968L379.129 484.285C386.12 486.525 393.36 488.195 400.669 488.905C415.64 490.355 430.839 488.895 445.18 484.355C468.53 476.955 488.64 460.465 501.53 439.745C516.83 415.185 518.56 387.305 518.339 359.065C518.102 328.077 517.094 297.07 515.449 266.114L515.169 260.955C514.299 245.025 513.459 229.085 512.72 213.145C512.49 208.145 512.14 203.105 511.509 198.115C505.74 194.735 500.57 190.075 497.2 184.325C490.43 187.125 483.31 189.145 476.759 190.755C461.585 194.487 445.831 195.393 430.386 193.056C426.22 194.777 421.971 196.29 417.657 197.592C416.491 198.109 415.325 198.617 414.16 199.115C403.759 203.565 393.209 207.335 382.23 210.095L379.533 210.768C373.755 212.192 367.479 213.595 361.33 214.035C360.32 214.425 359.23 214.755 358.039 215.045C352.44 216.405 346.629 216.835 340.89 216.355C335.299 215.885 331.259 210.235 334.339 204.945C336.589 201.085 338.86 197.235 341.15 193.395C333.18 196.715 324.95 199.475 316.65 201.815C308.27 204.175 299.77 206.165 291.259 207.995C286.709 208.965 282.14 209.825 277.6 210.795C274.35 211.485 269.36 211.845 266.709 213.985C263.78 216.335 262.95 221.815 261.839 225.195C260.379 229.585 259.009 233.995 257.759 238.455C255.27 247.355 253.23 256.385 251.65 265.505C250.07 274.635 249.009 283.855 248.419 293.105C247.83 302.345 248.089 311.645 247.14 320.845C246.629 325.725 241.39 328.235 237.52 324.825C237.066 324.425 236.608 324.021 236.155 323.612L235.48 322.995C232.169 319.995 228.959 316.815 226.31 313.235C225.83 312.575 225.37 311.885 224.94 311.185C224.87 311.185 224.81 311.165 224.74 311.115L224.005 310.562C215.918 304.543 202.406 296.694 194.52 306.695C192.007 309.881 190.72 313.938 189.653 317.851L187.779 324.856C186.567 329.428 185.426 334.026 184.759 338.705C183.249 349.185 184.009 361.265 191.22 369.665C194.1 373.025 198.07 375.425 202.499 376.055C204.97 376.395 207.41 375.975 209.86 375.665C212.35 375.355 214.749 375.855 217.24 375.615C221.2 375.225 222.93 379.965 221.45 382.945C220.65 384.545 219.709 385.925 218.64 387.095C219.499 387.835 220.32 388.635 221.11 389.475C223.45 390.225 225.549 391.835 227.12 393.965C228.39 395.685 229.049 397.555 229.16 399.525C229.299 400.015 229.419 400.515 229.53 401.025L231.675 404.507C232.147 405.271 232.617 406.025 233.089 406.765C238.549 415.365 244.61 422.645 252.14 429.505C259.39 436.105 267.259 442.015 274.07 449.095L274.872 449.936C281.222 456.627 287.915 464.726 285.43 474.455C284.79 476.955 281.299 478.755 279.02 477.065C271.69 471.625 267.999 463.005 261.78 456.405C255.379 449.605 248.289 443.495 241.87 436.715C235.799 430.315 231.009 423.065 227.4 415.085C225.959 416.675 223.86 417.805 220.95 418.245C215.95 418.995 211.289 416.065 209.11 411.735C207.709 412.355 206.28 412.915 204.839 413.355C197.259 415.675 192.49 407.245 195.35 401.015C196.879 397.675 198.789 394.775 201.16 392.335C193.749 391.315 186.209 387.485 181.339 382.705C169.12 370.695 167.44 352.645 170.19 336.595C171.65 328.085 174.169 319.475 177.44 311.485C178.009 310.095 178.62 308.695 179.289 307.315C178.919 307.305 178.539 307.145 178.299 306.835C176.089 303.815 173.4 301.345 171.759 297.965C170.249 294.865 168.57 291.725 167.379 288.495C164.93 281.885 163.73 274.425 162.93 267.435C161.28 253.125 161.919 238.905 164.11 224.685C167.839 200.465 176.847 177.287 190.118 156.949C189.395 156.569 188.703 156.111 188.058 155.569L187.739 155.291L187.221 154.823C183.434 151.396 183.761 144.973 187.221 141.502L188.314 140.407C189.697 139.032 190.891 137.943 193.126 136.446C193.456 136.225 193.793 136.017 194.134 135.823C192.964 133.661 192.558 131.133 193.373 128.344C196.213 118.628 210.193 118.972 219.054 123.209C228.857 114.46 239.727 106.865 251.509 100.715C279.57 86.0751 311.299 75.8651 342.28 69.6251ZM197.23 325.525C202.47 323.815 209.43 327.405 214.14 329.565C220.11 332.305 225.19 336.355 230.11 340.635C232.56 342.775 232.999 346.275 232.39 349.265C232.329 349.565 232.27 349.875 232.199 350.185C231.549 353.375 227.989 355.885 224.839 355.795C218.249 355.615 215.11 349.925 211.379 345.105C210.94 345.885 210.39 346.605 209.709 347.145L209.249 347.505C207.701 348.684 205.995 349.626 203.949 349.535C202.499 349.465 201.11 349.095 199.829 348.425C196.629 346.735 195.22 342.595 196.089 339.225C196.629 337.105 197.869 335.445 199.489 334.295L198.885 333.882C197.593 332.983 196.415 332.035 195.496 330.636L195.289 330.305H195.369C194.369 328.585 195.02 326.245 197.23 325.525Z" fill="#3E1B03"/>
<path fill-rule="evenodd" clip-rule="evenodd" d="M419.884 429.932C427.443 428.88 435.571 424.599 442.791 428.078C446.166 429.704 447.768 435.265 445.486 438.356C442.001 443.077 438.403 443.858 432.746 444.312C428.505 444.652 424.241 444.677 420.011 444.188L418.935 444.056C411.387 443.082 403.542 440.975 397.695 435.903C396.499 434.865 397.112 432.623 398.647 432.299C405.591 430.838 412.855 430.911 419.884 429.932ZM410.987 412.526C410.984 412.465 411.077 412.465 411.08 412.526C411.263 416.846 412.477 420.851 414.721 424.547C414.752 424.6 414.671 424.647 414.64 424.595C412.395 420.896 411.17 416.85 410.987 412.526ZM434.814 323.367C442.366 327.957 453.872 338.66 445.748 350.04C436.186 360.073 422.419 348.569 415.634 343.366C409.343 339.334 402.275 349.705 408.112 354.413C457.136 390.708 477.031 324.568 438.634 317.971C434.406 317.244 432.836 321.947 434.814 323.367ZM473.464 272C475.237 272 476.933 272.602 478.478 273.716C479.998 274.812 481.374 276.412 482.52 278.407C484.689 282.183 486.045 287.396 486.045 293.16C486.045 298.925 484.689 304.138 482.52 307.914C481.374 309.909 479.998 311.509 478.478 312.605C476.933 313.719 475.237 314.32 473.464 314.32C471.691 314.32 469.995 313.719 468.45 312.605C466.93 311.509 465.554 309.909 464.408 307.914C462.239 304.138 460.883 298.925 460.883 293.16C460.883 287.396 462.239 282.183 464.408 278.407C465.554 276.412 466.93 274.812 468.45 273.716C469.995 272.602 471.691 272 473.464 272ZM391.347 277.88L392.014 277.753C395.909 277.045 397.877 277.283 401.269 279.938C403.818 281.933 403.088 285.862 401.269 287.96C398.1 291.616 395.005 290.968 390.665 291.108L390.36 291.119C386.743 291.266 383.123 291.369 379.503 291.424C378.513 291.44 377.522 291.436 376.532 291.442C376.637 300.603 371.355 307.578 364.399 312.881C359.903 316.31 354.216 312.354 352.612 308.086C351.285 304.554 351 300.211 351.688 296.344C351.943 294.919 352.474 293.371 353.286 292.052L353.515 291.698L353.478 291.192C353.469 291.067 353.478 290.946 353.474 290.821C347.016 290.429 340.596 289.781 334.178 288.967L332.039 288.69C326.561 287.965 318.516 287.732 314.083 284.169C313.943 284.055 313.993 283.806 314.141 283.727C316.578 282.414 319.05 282.489 321.776 282.368L322.167 282.349C325.131 282.196 328.088 282.068 331.05 281.967L334.015 281.874C341.597 281.657 349.186 281.289 356.761 280.886C358.078 280.816 359.395 280.733 360.714 280.652C362.093 280.074 363.559 279.728 365.007 279.664C366.207 279.61 367.361 279.776 368.446 280.121C371.212 279.907 373.978 279.674 376.74 279.424L379.503 279.168C383.401 278.797 387.499 278.635 391.347 277.88ZM439.215 209.22C447.548 205.125 457.68 205.025 466.262 208.414L466.831 208.644C475.499 212.241 485.943 220.549 483.681 230.898C481.612 240.37 466.755 238.765 466.002 229.812C461.205 223.166 450.448 221.708 443.686 225.934C439.585 228.498 436.77 232.815 434.846 237.169C433.206 240.877 432.897 245.456 430.378 248.686C430.296 248.791 430.132 248.81 430.013 248.782C422.501 247.044 422.327 235.107 423.608 229.317C425.469 220.899 431.442 213.042 439.215 209.22Z" fill="black"/>
<path fill-rule="evenodd" clip-rule="evenodd" d="M522.133 334.318C515.4 343.363 502.918 346.244 491.405 345.249C466.574 342.859 458.759 314.658 457.945 292.739C474.596 297.423 456.537 264.249 513.456 260.601C533.521 258.929 527.989 271.047 536.854 279.901C536.672 298.483 533.579 318.674 522.133 334.318M403.862 312.966C389.202 381.619 308.924 365.289 300.491 303.403C308.278 297.907 306.227 284.336 315.901 279.419C331.233 269.623 350.399 270.042 367.81 270.272C390.065 271.801 396.407 281.02 407.839 291.078C407.289 297.796 405.703 305.758 403.862 312.966M553.934 249.231C553.111 249.094 552.287 248.965 551.463 248.844C550.82 248.479 550.065 248.198 549.187 248.029C547.182 247.52 545.191 247.177 543.203 246.992C514.671 240.571 448.664 249.688 445.94 274.036C436.854 277.069 428.992 274.353 418.461 274.623C410.445 241.118 271.862 245.847 265.197 266.047C265.172 266.04 265.147 266.034 265.121 266.026C258.717 264.044 249.276 264.522 241.946 264.208C226.295 263.88 210.626 265.275 195.313 268.576C166.638 273.133 127.503 278.468 147.446 314.276C147.45 314.282 147.453 314.289 147.458 314.295L147.461 314.292C150.898 317.815 156.731 314.978 156.948 310.209C150.243 293.245 165.387 291.208 177.039 286.333C206.032 275.917 235.55 274.473 265.536 277.695C267.792 280.351 271.215 282.667 274.833 283.879C294.882 287.207 284.316 302.079 296.989 304.242C294.661 356.084 357.602 384.382 394.071 350.303C408.632 336.067 412.103 314.978 415.479 295.969C417.264 295.568 418.399 294.592 419.062 293.3C423.355 289.014 426.052 285.056 434.541 283.879C443.03 282.703 449.565 285.064 450.449 285.787C450.672 286.236 450.911 286.686 451.189 287.136C451.577 287.807 452.105 288.342 452.705 288.763C444.322 340.387 484.399 373.035 524.858 346.26C542.438 329.723 546.153 304.405 546.887 281.807C549.27 280.369 550.779 277.582 549.954 274.078C548.817 269.248 551.483 265.066 555.729 262.966C561.246 260.239 560.27 250.28 553.934 249.231" fill="black"/>
</svg>
